<?xml version="1.0" encoding="iso-8859-1"?>
<!-- Generator: Adobe Illustrator 17.1.0, SVG Export Plug-In . SVG Version: 6.00 Build 0)  -->
<!DOCTYPE svg PUBLIC "-//W3C//DTD SVG 1.1//EN" "http://www.w3.org/Graphics/SVG/1.1/DTD/svg11.dtd">
<svg version="1.1" id="Capa_1" xmlns="http://www.w3.org/2000/svg" xmlns:xlink="http://www.w3.org/1999/xlink" x="0px" y="0px"
	 viewBox="0 0 246.5 246.5" style="enable-background:new 0 0 246.5 246.5;" xml:space="preserve">
<path d="M204.831,239c0,4.142-3.358,7.5-7.5,7.5h-147c-4.142,0-7.5-3.358-7.5-7.5v-16c0-4.142,3.358-7.5,7.5-7.5h147
	c4.142,0,7.5,3.358,7.5,7.5V239z M63.542,187.5h120.073c-1.457-11-5.733-22.047-12.758-31.106l-47.314-60.986l-47.289,60.986
	C69.229,165.453,64.999,176.5,63.542,187.5z M198.176,183.386l30.053-39.259c17.727-22.859,17.602-56.993-0.398-79.851v-0.006
	c-10-13.805-25.142-20.711-40.01-20.719c-14.824,0.052-29.549,6.964-40.22,20.724l-14.569,18.842l49.704,64.067
	C190.755,157.524,196.079,170.005,198.176,183.386z M58.652,43.546c-14.88,0-29.821,6.912-40.821,20.723v0.006
	c-8,11.372-12.672,25.535-12.76,39.712c0.016,14.194,4.392,28.368,13.193,39.717l30.701,39.501
	c2.115-13.317,7.43-25.73,15.415-36.027l49.654-64.015l-14.741-18.9C88.582,50.452,73.533,43.546,58.652,43.546z M107.164,32.5
	h8.667v28.812l7.413,9.56l7.587-9.783V32.5h9.333c4.143,0,7.5-3.357,7.5-7.5s-3.357-7.5-7.5-7.5h-9.333v-10
	c0-4.143-3.357-7.5-7.5-7.5s-7.5,3.357-7.5,7.5v10h-8.667c-4.143,0-7.5,3.357-7.5,7.5S103.022,32.5,107.164,32.5z"/>
<g>
</g>
<g>
</g>
<g>
</g>
<g>
</g>
<g>
</g>
<g>
</g>
<g>
</g>
<g>
</g>
<g>
</g>
<g>
</g>
<g>
</g>
<g>
</g>
<g>
</g>
<g>
</g>
<g>
</g>
</svg>
