<?xml version="1.0" encoding="iso-8859-1"?>
<!-- Generator: Adobe Illustrator 19.0.0, SVG Export Plug-In . SVG Version: 6.00 Build 0)  -->
<svg version="1.1" id="Capa_1" xmlns="http://www.w3.org/2000/svg" xmlns:xlink="http://www.w3.org/1999/xlink" x="0px" y="0px"
	 viewBox="0 0 512 512" style="enable-background:new 0 0 512 512;" xml:space="preserve">
<g>
	<g>
		<g>
			<path d="M196.58,282h6.126l-7.357,99h121.303l-7.357-99h6.126c8.284,0,15-6.716,15-15v-51c0-8.284-6.716-15-15-15h-1.486
				c2.778-8.894,5.245-19.987,5.915-32.578c0.58-10.888-0.164-23.712-3.722-37.603l-43.859,42.325
				c-5.942,5.736-15.44,5.602-21.21-0.377c-5.752-5.96-5.583-15.457,0.378-21.209l52.728-50.884
				c-5.362-9.796-12.392-19.791-21.484-29.743C291.143,63.503,296.5,52.618,296.5,40.5C296.5,18.168,278.332,0,256,0
				c-22.332,0-40.5,18.168-40.5,40.5c0,12.117,5.355,23,13.816,30.428c-32.602,35.683-38.527,71.925-37.165,97.494
				c0.67,12.591,3.137,23.684,5.915,32.578h-1.486c-8.284,0-15,6.716-15,15v51C181.58,275.284,188.296,282,196.58,282z"/>
			<path d="M360.468,493.039l-19.438-71C339.244,415.52,333.32,411,326.562,411H185.438c-6.759,0-12.683,4.52-14.468,11.039
				l-19.438,71c-1.235,4.512-0.295,9.341,2.543,13.06C156.912,509.818,161.322,512,166,512h180c4.678,0,9.088-2.182,11.925-5.901
				C360.763,502.38,361.703,497.551,360.468,493.039z"/>
		</g>
	</g>
</g>
<g>
</g>
<g>
</g>
<g>
</g>
<g>
</g>
<g>
</g>
<g>
</g>
<g>
</g>
<g>
</g>
<g>
</g>
<g>
</g>
<g>
</g>
<g>
</g>
<g>
</g>
<g>
</g>
<g>
</g>
</svg>
