<?xml version="1.0" encoding="iso-8859-1"?>
<!-- Generator: Adobe Illustrator 19.0.0, SVG Export Plug-In . SVG Version: 6.00 Build 0)  -->
<svg version="1.1" id="Capa_1" xmlns="http://www.w3.org/2000/svg" xmlns:xlink="http://www.w3.org/1999/xlink" x="0px" y="0px"
	 viewBox="0 0 485 485" style="enable-background:new 0 0 485 485;" xml:space="preserve">
<g>
	<path d="M485,244.627c0-74.294-60.443-134.737-134.737-134.737c-25.773,0-50.828,7.305-72.456,21.124
		c-7.302,4.666-14.085,10.015-20.308,15.923V78.274h46.616v-30H257.5V1.659h-30v46.615h-46.616v30H227.5v68.664
		c-6.223-5.909-13.005-11.258-20.308-15.923c-21.628-13.819-46.683-21.124-72.456-21.124C60.443,109.89,0,170.333,0,244.627
		c0,44.996,22.732,87.145,59.868,112.028v126.686h365.264V356.655C462.268,331.772,485,289.624,485,244.627z M350.263,139.89
		C408.015,139.89,455,186.875,455,244.627c0,35.976-18.701,69.61-49.052,88.714H257.5V195.965
		C275.679,161.292,310.918,139.89,350.263,139.89z M30,244.627c0-57.752,46.985-104.737,104.737-104.737
		c39.345,0,74.584,21.401,92.763,56.074v137.377H79.052C48.701,314.238,30,280.603,30,244.627z M395.132,453.341H89.868v-90h305.264
		V453.341z"/>
	<circle cx="242.5" cy="408.341" r="20"/>
	<circle cx="158.684" cy="408.341" r="20"/>
	<circle cx="326.316" cy="408.341" r="20"/>
</g>
<g>
</g>
<g>
</g>
<g>
</g>
<g>
</g>
<g>
</g>
<g>
</g>
<g>
</g>
<g>
</g>
<g>
</g>
<g>
</g>
<g>
</g>
<g>
</g>
<g>
</g>
<g>
</g>
<g>
</g>
</svg>
