<?xml version="1.0" encoding="iso-8859-1"?>
<!-- Generator: Adobe Illustrator 16.0.0, SVG Export Plug-In . SVG Version: 6.00 Build 0)  -->
<!DOCTYPE svg PUBLIC "-//W3C//DTD SVG 1.1//EN" "http://www.w3.org/Graphics/SVG/1.1/DTD/svg11.dtd">
<svg version="1.1" id="Capa_1" xmlns="http://www.w3.org/2000/svg" xmlns:xlink="http://www.w3.org/1999/xlink" x="0px" y="0px"
	 width="36.722px" height="36.723px" viewBox="0 0 36.722 36.723" style="enable-background:new 0 0 36.722 36.723;"
	 xml:space="preserve">
<g>
	<path d="M32.343,19.48c-3.736,2.019-4.098-1.653-4.098-1.653c-3.092-0.358-5.393-3.812-5.393-3.812
		c-4.171,2.156-1.848,8.238-0.048,10.574c0.646,0.838,0.974,1.82,1.117,2.801h2.858v4.166h3.974v5.166H3.423v-5.166h3.973v-4.166
		h3.277c-0.541-0.531-1.042-1.119-1.483-1.771C4.803,19.145,7.899,14.09,7.899,14.09c-0.719-0.213-3.02,1.295-3.02,1.295
		c1.294-4.742,8.411-8.771,8.411-8.771c-0.79-0.289-3.019,0.285-3.019,0.285c5.823-5.604,12.941-3.52,12.941-3.52
		C23.427,2.155,26.951,0,26.951,0c-0.359,0.356-0.504,2.301-0.504,2.301c0.358-0.648,1.511-1.295,1.511-1.295
		c-0.646,1.508,0,4.742,0,4.742c1.87,1.87,3.954,8.342,3.954,8.342l0.791,1.149C33.711,16.68,33.34,18.943,32.343,19.48z"/>
</g>
<g>
</g>
<g>
</g>
<g>
</g>
<g>
</g>
<g>
</g>
<g>
</g>
<g>
</g>
<g>
</g>
<g>
</g>
<g>
</g>
<g>
</g>
<g>
</g>
<g>
</g>
<g>
</g>
<g>
</g>
</svg>
